<?xml version="1.0" encoding="utf-8"?>
<!-- Generator: Adobe Illustrator 23.0.3, SVG Export Plug-In . SVG Version: 6.00 Build 0)  -->
<svg version="1.1" id="Layer_1" xmlns="http://www.w3.org/2000/svg" xmlns:xlink="http://www.w3.org/1999/xlink" x="0px" y="0px"
	 viewBox="0 0 738 144" enable-background="new 0 0 738 144" xml:space="preserve">
<rect fill="none" width="738" height="144"/>
<g>
	<path fill="#1D9AD6" d="M131.6,93.9c0,20.3,14.9,28.2,33.4,28.2c20.3,0,27.9-10,27.9-19.9c0-10.1-5.5-14.2-10.9-16.2
		c-9.2-3.5-21.2-5.9-39.3-10.9c-22.5-6.1-29.1-19.7-29.1-33.4c0-26.4,24.3-38.7,48.1-38.7c27.5,0,50.5,14.6,50.5,42.1h-23.1
		c-1.1-17-12.5-23.2-28.4-23.2c-10.7,0-24.2,3.9-24.2,17.2c0,9.2,6.3,14.4,15.7,17c2,0.6,31.2,8.1,38,10.1
		c17.3,5.2,25.6,19.9,25.6,33.6c0,29.5-26.2,41.3-52.4,41.3c-30.1,0-54.4-14.4-55-47H131.6z"/>
	<path fill="#1D9AD6" d="M293.5,74.4c-1.7-11.6-10.1-17.9-21.8-17.9c-10.9,0-26.2,5.7-26.2,34.7c0,15.9,7,32.6,25.3,32.6
		c12.2,0,20.7-8.1,22.7-21.8h21c-3.9,24.7-19.2,38.4-43.7,38.4c-29.9,0-46.3-21.2-46.3-49.2c0-28.8,15.7-51.3,47-51.3
		c22.1,0,40.9,11.1,43,34.5H293.5z"/>
	<path fill="#1D9AD6" d="M327.1,6.2h21V55h0.4c5.2-8.7,16-15.1,28.6-15.1c20.7,0,33.7,11.1,33.7,32.5v65.5h-21V77.9
		c-0.4-14.9-6.3-21.4-18.6-21.4c-14,0-23.1,11.1-23.1,25.1v56.3h-21V6.2z"/>
	<path fill="#1D9AD6" d="M423.3,90.1c0-29.1,17.5-50.2,48.1-50.2c30.6,0,48.1,21,48.1,50.2c0,29.3-17.5,50.3-48.1,50.3
		C440.8,140.4,423.3,119.4,423.3,90.1z M498.6,90.1c0-16.4-8.3-33.6-27.1-33.6s-27.1,17.2-27.1,33.6c0,16.6,8.3,33.8,27.1,33.8
		S498.6,106.7,498.6,90.1z"/>
	<path fill="#1D9AD6" d="M532.8,6.2h21v131.7h-21V6.2z"/>
	<path fill="#1D9AD6" d="M651.6,116.6c0,5.2,1.1,7.2,5,7.2c1.3,0,3,0,5.2-0.4V138c-3.1,1.1-9.8,2.4-13.3,2.4
		c-8.5,0-14.6-2.9-16.2-11.6c-8.3,8.1-21.8,11.6-33,11.6c-17.2,0-32.6-9.2-32.6-27.8c0-23.8,19-27.7,36.7-29.7
		c15.1-2.8,28.6-1.1,28.6-13.5c0-10.9-11.2-12.9-19.7-12.9c-11.8,0-20.1,4.8-21,15.1h-21c1.5-24.5,22.3-31.7,43.3-31.7
		c18.6,0,38.2,7.6,38.2,27.7V116.6z M630.6,90.1c-6.5,4.2-16.6,4.1-25.8,5.7c-9,1.5-17.2,4.8-17.2,15.9c0,9.4,12,12.2,19.4,12.2
		c9.2,0,23.6-4.8,23.6-18.1V90.1z"/>
	<path fill="#1D9AD6" d="M670.8,42.5h19.7v18.4h0.4c2.4-10.1,14.9-21,27.9-21c4.8,0,6.1,0.4,7.9,0.6v20.3c-3-0.4-6.1-0.9-9-0.9
		c-14.4,0-25.8,11.6-25.8,32.6v45.4h-21V42.5z"/>
</g>
<path fill="#014A81" d="M52.2,0C33.9,0,19.6,31.6,19.6,72c0,40.4,14.3,72,32.7,72c18,0,32.1-29.9,32.6-69.6c0-0.8,0-1.6,0-2.4v-3
	H41.4v6h37.5c-0.6,34.2-12.8,63-26.6,63c-12.9,0-26.7-26.5-26.7-66c0-39.5,13.8-66,26.7-66c13.1,0,24.6,25.1,26.4,57h6
	C82.7,26.8,69.1,0,52.2,0z"/>
<path fill="#014A81" d="M32.7,138C19.8,138,6,111.5,6,72C6,32.5,19.8,6,32.7,6c13.2,0,24.6,25.1,26.4,57h6c-2-36.2-15.5-63-32.4-63
	C14.4,0,0,31.6,0,72c0,40.4,14.4,72,32.7,72c16.8,0,30.5-26.8,32.4-63h-6C57.3,112.8,45.8,138,32.7,138z"/>
</svg>
